# xmcd
#
# Track frame offsets: 
#        150
#        14298
#        26782
#        40327
#        57843
#        72411
#        84749
#        99155
#        110194
#        122238
#        134722
#        145294
#        159000
#        170934
#        183201
#        196668
#        208665
#
# Disc length: 3184 seconds
#
# Revision: 1
# Processed by: cddbd v1.5.2PL0 Copyright (c) Steve Scherf et al.
# Submitted via: ExactAudioCopy v0.95b2
#
DISCID=f70c6e11
DTITLE=Little Milton - If Walls Could Talk
DYEAR=1968
DGENRE=R&B
TTITLE0=If Walls Could Talk
TTITLE1=Baby, I Love You
TTITLE2=Let's Get Together
TTITLE3=Things I Used To Do
TTITLE4=Kansas City
TTITLE5=Poor Man's Song
TTITLE6=Blues Get Off My Shoulder
TTITLE7=I Play Dirty
TTITLE8=Good To Me As I Am To You
TTITLE9=Your Precious Love
TTITLE10=I Don't Know
TTITLE11=The Dark End Of The Street
TTITLE12=I (Who Have Nothing)
TTITLE13=Let Me Down Easy
TTITLE14=Driftin' Drifter
TTITLE15=Grits Ain't Groceries
TTITLE16=I Can't Quit You Baby
EXTD=
EXTT0=
EXTT1=
EXTT2=
EXTT3=
EXTT4=
EXTT5=
EXTT6=
EXTT7=
EXTT8=
EXTT9=
EXTT10=
EXTT11=
EXTT12=
EXTT13=
EXTT14=
EXTT15=
EXTT16=
PLAYORDER=
